<svg xmlns="http://www.w3.org/2000/svg" viewBox="0 0 340 510" width="340" height="510">
  <defs>
    <linearGradient id="bg" x1="0%" y1="0%" x2="100%" y2="100%">
      <stop offset="0%" style="stop-color:#7B68AE;stop-opacity:1" />
      <stop offset="30%" style="stop-color:#6B7DB8;stop-opacity:1" />
      <stop offset="60%" style="stop-color:#5A8EC2;stop-opacity:1" />
      <stop offset="100%" style="stop-color:#4A6FA0;stop-opacity:1" />
    </linearGradient>
    <linearGradient id="overlay" x1="0%" y1="0%" x2="100%" y2="100%">
      <stop offset="0%" style="stop-color:#9B7CC0;stop-opacity:0.6" />
      <stop offset="50%" style="stop-color:#6488B8;stop-opacity:0.4" />
      <stop offset="100%" style="stop-color:#5A78A8;stop-opacity:0.5" />
    </linearGradient>
    <filter id="watercolor">
      <feTurbulence type="fractalNoise" baseFrequency="0.04" numOctaves="4" result="noise"/>
      <feDisplacementMap in="SourceGraphic" in2="noise" scale="15" xChannelSelector="R" yChannelSelector="G"/>
    </filter>
    <filter id="softglow">
      <feGaussianBlur stdDeviation="2" result="blur"/>
      <feComposite in="SourceGraphic" in2="blur" operator="over"/>
    </filter>
  </defs>

  <!-- Background -->
  <rect width="340" height="510" fill="url(#bg)"/>

  <!-- Watercolor-style overlay patches -->
  <ellipse cx="80" cy="120" rx="120" ry="80" fill="#9B7CC0" opacity="0.35"/>
  <ellipse cx="280" cy="80" rx="100" ry="60" fill="#7B68AE" opacity="0.3"/>
  <ellipse cx="170" cy="300" rx="160" ry="100" fill="#5A8EC2" opacity="0.25"/>
  <ellipse cx="60" cy="400" rx="120" ry="80" fill="#8B6BAA" opacity="0.3"/>
  <ellipse cx="300" cy="450" rx="100" ry="70" fill="#6B7DB8" opacity="0.25"/>
  <ellipse cx="200" cy="150" rx="100" ry="60" fill="#7D90C0" opacity="0.2"/>

  <!-- Musical staff lines (decorative, upper right area) -->
  <g opacity="0.25" stroke="white" stroke-width="1.5" fill="none">
    <!-- Staff lines -->
    <path d="M 160,60 Q 240,40 340,70"/>
    <path d="M 160,72 Q 240,52 340,82"/>
    <path d="M 160,84 Q 240,64 340,94"/>
    <path d="M 160,96 Q 240,76 340,106"/>
    <path d="M 160,108 Q 240,88 340,118"/>
  </g>

  <!-- Musical notes (decorative) -->
  <g fill="white" opacity="0.3">
    <!-- Eighth notes -->
    <ellipse cx="200" cy="78" rx="8" ry="6" transform="rotate(-15,200,78)"/>
    <line x1="207" y1="75" x2="207" y2="45" stroke="white" stroke-width="2" opacity="0.3"/>
    <ellipse cx="240" cy="68" rx="8" ry="6" transform="rotate(-15,240,68)"/>
    <line x1="247" y1="65" x2="247" y2="35" stroke="white" stroke-width="2" opacity="0.3"/>
    <!-- Beam -->
    <line x1="207" y1="45" x2="247" y2="35" stroke="white" stroke-width="2.5" opacity="0.3"/>

    <!-- Quarter note -->
    <ellipse cx="280" cy="90" rx="8" ry="6" transform="rotate(-15,280,90)"/>
    <line x1="287" y1="87" x2="287" y2="55" stroke="white" stroke-width="2" opacity="0.3"/>

    <!-- More notes scattered -->
    <ellipse cx="310" cy="75" rx="7" ry="5" transform="rotate(-10,310,75)"/>
    <line x1="316" y1="72" x2="316" y2="44" stroke="white" stroke-width="2" opacity="0.3"/>
  </g>

  <!-- More musical elements lower right -->
  <g fill="white" opacity="0.2">
    <g transform="translate(220,180)">
      <ellipse cx="0" cy="0" rx="8" ry="6" transform="rotate(-15)"/>
      <line x1="7" y1="-3" x2="7" y2="-35" stroke="white" stroke-width="2" opacity="0.2"/>
    </g>
    <g transform="translate(260,170)">
      <ellipse cx="0" cy="0" rx="8" ry="6" transform="rotate(-15)"/>
      <line x1="7" y1="-3" x2="7" y2="-35" stroke="white" stroke-width="2" opacity="0.2"/>
    </g>
    <g transform="translate(300,185)">
      <ellipse cx="0" cy="0" rx="8" ry="6" transform="rotate(-15)"/>
      <line x1="7" y1="-3" x2="7" y2="-35" stroke="white" stroke-width="2" opacity="0.2"/>
    </g>
  </g>

  <!-- Title text -->
  <text fill="white" font-family="Georgia, 'Times New Roman', serif" font-weight="bold" text-anchor="start">
    <tspan x="30" y="175" font-size="32">Teaching Music</tspan>
    <tspan x="30" y="212" font-size="32">through</tspan>
    <tspan x="30" y="249" font-size="32">Performance in</tspan>
    <tspan x="30" y="286" font-size="32">Contemporary</tspan>
    <tspan x="30" y="323" font-size="32">A cappella</tspan>
  </text>

  <!-- Author names -->
  <text fill="white" font-family="Georgia, 'Times New Roman', serif" font-weight="bold" text-anchor="start" font-size="15">
    <tspan x="30" y="365">J.D. Frizzell</tspan>
    <tspan x="30" y="383">Erin Hackel</tspan>
    <tspan x="30" y="401">Deke Sharon</tspan>
    <tspan x="30" y="419">Marc Silverberg</tspan>
    <tspan x="30" y="437">Ben Spalding</tspan>
  </text>

  <!-- Compiled/Edited by line -->
  <text fill="white" font-family="Georgia, 'Times New Roman', serif" font-style="italic" text-anchor="start" font-size="12">
    <tspan x="30" y="468">Compiled and Edited by</tspan>
  </text>
  <text fill="white" font-family="Georgia, 'Times New Roman', serif" font-weight="bold" text-anchor="start" font-size="13">
    <tspan x="30" y="485">Deke Sharon, J.D. Frizzell, and Marc Silverberg</tspan>
  </text>
</svg>
